<?xml version="1.0" standalone="no"?><!DOCTYPE svg PUBLIC "-//W3C//DTD SVG 1.1//EN" "http://www.w3.org/Graphics/SVG/1.1/DTD/svg11.dtd"><svg t="1599791874551" class="icon" viewBox="0 0 1024 1024" version="1.1" xmlns="http://www.w3.org/2000/svg" p-id="1320" width="24" height="24" xmlns:xlink="http://www.w3.org/1999/xlink"><defs><style type="text/css"></style></defs><path d="M312.693722 826.432319c-23.526833-2.492774-43.26027 17.243733-40.765449 40.769542 1.817392 17.142425 15.59928 30.922267 32.741705 32.737612 23.526833 2.492774 43.26027-17.243733 40.765449-40.769542C343.618035 842.028529 329.836147 828.247664 312.693722 826.432319z" p-id="1321" fill="#d81e06"></path><path d="M867.199815 826.432319c-23.52581-2.493797-43.261293 17.241686-40.767496 40.767496 1.817392 17.142425 15.597233 30.922267 32.739659 32.739659 23.52581 2.493797 43.261293-17.241686 40.767496-40.767496C898.122081 842.029552 884.34224 828.248687 867.199815 826.432319z" p-id="1322" fill="#d81e06"></path><path d="M900.152321 575.790862 900.152321 351.624383c0-34.798551-29.059849-63.149249-64.916499-63.497173l-601.179089-40.249703c-5.39487-44.208874-9.957793-76.902484-12.834306-88.528266-4.754281-19.213597-15.32401-34.029024-30.565133-42.843784-14.927991-8.632611-31.369452-10.033517-43.880393-9.337669-10.538007 0.585331-17.818831 10.772344-14.906501 20.916379 2.619664 9.314133 11.04659 15.884782 20.720927 15.939017 6.567579 0.036839 13.837146 1.130753 19.681248 4.554736 6.455015 3.781116 10.728342 10.208503 13.065574 19.650549 2.87242 11.609409 7.833409 48.298006 13.855566 98.889241 0.033769 0.347924 0.070608 0.693802 0.12382 1.035586 14.936177 125.645628 36.331463 335.971891 48.657186 461.879486 0.512676 32.742728 26.594705 59.21873 58.582233 59.21873l574.695924 0c9.634428 0 17.97949-7.206122 18.826787-16.803711 0.968048-10.964726-7.646144-20.163225-18.409279-20.163225L306.555931 752.284575c-11.922541 0-21.62246-10.422374-21.62246-23.232121 0-0.601704-0.029676-1.202385-0.088004-1.801019-0.343831-3.518127-1.992377-20.329001-4.556783-46.105061l555.029002-41.859363C871.13852 638.898155 900.152321 610.56383 900.152321 575.790862zM671.26533 461.142705c0 11.417027-9.340739 20.757766-20.757766 20.757766L461.055724 481.900471c-11.416004 0-20.757766-9.340739-20.757766-20.757766l0-7.601118c0-11.417027 9.340739-20.757766 20.757766-20.757766l189.45184 0c11.416004 0 20.757766 9.340739 20.757766 20.757766L671.26533 461.142705z" p-id="1323" fill="#d81e06"></path></svg>